PathFileType	4	(X/Y/Z)	C:/Users/opensim2020/Desktop/walking_exp_matlab/subject06_walking21_straight_03.trc	
DataRate	CameraRate	NumFrames	NumMarkers	Units	OrigDataRate	OrigDataStartFrame	OrigNumFrames	
100.00	100.00	5	44	mm	100.00	1807	110	
Frame#	Time	LFHD			RFHD			LBHD			RBHD			C7			T10			CLAV			STRN			RBAK			LSHO			LUPA			LELB			LFRM			LWRA			LWRB			LFIN			RSHO			RUPA			RELB			RFRM			RWRA			RWRB			RFIN			LASI			RASI			LPSI			RPSI			LTHI			LKNE			LTIB			LANK			LHEE			LTOE			RTHI			RKNE			RTIB			RANK			RHEE			RTOE			*39			*40			*41			*42			*43			
		X1	Y1	Z1	X2	Y2	Z2	X3	Y3	Z3	X4	Y4	Z4	X5	Y5	Z5	X6	Y6	Z6	X7	Y7	Z7	X8	Y8	Z8	X9	Y9	Z9	X10	Y10	Z10	X11	Y11	Z11	X12	Y12	Z12	X13	Y13	Z13	X14	Y14	Z14	X15	Y15	Z15	X16	Y16	Z16	X17	Y17	Z17	X18	Y18	Z18	X19	Y19	Z19	X20	Y20	Z20	X21	Y21	Z21	X22	Y22	Z22	X23	Y23	Z23	X24	Y24	Z24	X25	Y25	Z25	X26	Y26	Z26	X27	Y27	Z27	X28	Y28	Z28	X29	Y29	Z29	X30	Y30	Z30	X31	Y31	Z31	X32	Y32	Z32	X33	Y33	Z33	X34	Y34	Z34	X35	Y35	Z35	X36	Y36	Z36	X37	Y37	Z37	X38	Y38	Z38	X39	Y39	Z39	X40	Y40	Z40	X41	Y41	Z41	X42	Y42	Z42	X43	Y43	Z43	X44	Y44	Z44	

42	0.410	-1104.13977	-254.39906	1634.68237	-973.16589	-259.21701	1619.08362	-1111.05286	-387.54437	1581.38110	-982.31720	-390.47296	1571.22791	-1053.76794	-393.12976	1421.56970	-1037.43774	-434.21103	1092.79688	-1053.17029	-284.34244	1341.20264	-1053.58557	-248.39581	1165.37634	-966.71875	-468.84738	1254.26001	-1214.80334	-345.66998	1370.87500	-1281.50525	-406.99319	1179.46069	-1290.26196	-450.54840	1075.60022	-1320.30042	-486.74561	932.48828	-1295.94360	-465.79849	799.48163	-1319.03625	-530.89294	821.58948	-1330.95776	-527.01392	731.52820	-892.08777	-329.28195	1381.38501	-793.71161	-370.46930	1190.68396	-776.20319	-356.73987	1073.79578	-766.68195	-288.13943	980.53772	-815.01813	-165.17813	906.07068	-774.56317	-206.71696	872.37738	-781.04956	-133.74242	832.76941	-1140.35693	-254.43996	935.41553	-923.87476	-268.65573	932.66510	-1128.62573	-413.59082	959.73230	-959.91168	-417.12152	961.29041	-1209.84290	-245.96321	630.42255	-1179.26758	-186.93124	482.92484	-1167.56616	-157.98322	228.18510	-1124.61780	-120.50584	61.83836	-1074.09619	-156.88791	45.83939	-1127.45813	23.97607	56.48121	-883.03381	-369.47211	599.30530	-903.21259	-391.47223	473.20959	-920.68719	-587.82776	284.77557	-969.07123	-719.87701	157.09171	-1011.69537	-762.62537	171.31839	-994.12048	-641.72351	30.16781	-1047.31128	-356.36710	1671.10144												 
43	0.420	-1105.29370	-239.84085	1636.48816	-974.42468	-245.36111	1620.87659	-1113.00635	-372.90021	1583.22522	-984.21722	-376.60043	1572.95984	-1055.72937	-378.38815	1423.26697	-1038.19897	-418.97021	1094.30298	-1054.31189	-269.77399	1343.02722	-1054.40332	-233.10641	1167.42566	-969.21710	-454.08371	1255.08594	-1216.34802	-329.87463	1372.30945	-1283.55066	-389.92596	1180.65869	-1292.12402	-433.45377	1076.78052	-1322.03381	-468.94183	933.39301	-1296.70715	-448.59384	800.36023	-1320.69263	-512.76355	822.27008	-1332.12158	-508.99255	732.34790	-893.32745	-315.70938	1383.27002	-795.56818	-357.42160	1192.36292	-777.97638	-344.16617	1075.13550	-768.07220	-277.03799	980.48010	-815.46368	-155.04895	903.63934	-775.25946	-197.50549	870.82794	-781.24023	-125.24297	829.89093	-1141.07715	-237.91016	937.88672	-924.82782	-252.15575	933.92316	-1128.23987	-397.55817	962.65002	-959.82593	-400.41812	961.83655	-1210.55786	-230.51364	633.97009	-1180.00342	-171.61948	486.06860	-1169.57764	-147.64464	230.33788	-1125.42920	-118.42677	62.44674	-1075.29980	-155.21608	46.85249	-1127.43518	25.92112	51.84593	-882.09418	-347.59888	598.14160	-901.11725	-366.54843	471.56802	-920.30450	-565.81171	289.12619	-968.59906	-702.61652	167.45827	-1012.30243	-742.74829	185.49722	-994.47107	-638.48407	32.26985	-1049.07092	-342.03629	1673.08386												 
44	0.430	-1106.52747	-225.25255	1638.05115	-975.74548	-231.21666	1622.56335	-1114.85095	-358.24927	1584.93262	-986.14655	-362.69156	1574.79724	-1057.52283	-363.64417	1425.03772	-1038.55151	-403.67853	1095.80078	-1055.20374	-255.16953	1344.89844	-1055.01001	-217.95508	1169.45947	-971.33105	-439.60452	1256.37915	-1217.58240	-313.82858	1373.92688	-1285.58459	-372.45062	1182.09546	-1293.90417	-415.71973	1077.98999	-1323.61414	-449.98633	934.14844	-1297.42249	-429.28781	801.84894	-1322.63745	-493.56808	823.13037	-1333.23145	-489.43362	732.96814	-894.61835	-302.06372	1385.37866	-797.91797	-345.03876	1194.27661	-780.12347	-331.53296	1076.79187	-769.55109	-266.16998	980.56610	-816.07361	-145.91336	900.68555	-775.87225	-189.09792	869.14099	-781.36206	-117.54276	826.73926	-1141.94055	-221.82555	941.01837	-926.10474	-236.11273	935.11359	-1127.23364	-382.22400	965.43579	-959.31104	-383.93002	962.32611	-1211.28284	-215.23048	637.76086	-1180.31812	-157.06778	489.13040	-1171.68347	-139.60280	231.44290	-1126.03894	-117.01746	62.61938	-1076.27271	-154.15503	47.67290	-1126.78601	27.58267	47.38083	-881.01807	-325.30243	597.03925	-898.79681	-340.50540	469.96609	-919.40564	-542.55554	294.04987	-968.30298	-684.11279	178.66960	-1011.99304	-721.60809	200.19458	-994.41418	-632.21539	36.66578	-1050.92407	-327.63840	1674.78369												 
45	0.440	-1107.73657	-210.59311	1639.19812	-976.94806	-217.34962	1624.03577	-1116.64990	-343.69702	1586.24719	-987.96466	-348.75296	1576.42810	-1059.07300	-348.98749	1426.32056	-1038.96362	-388.63605	1097.41394	-1056.01062	-240.52451	1346.56067	-1055.43909	-202.68829	1171.24390	-972.95392	-424.89886	1257.73425	-1218.69189	-297.68332	1375.72461	-1287.23596	-354.63046	1183.41724	-1295.87610	-397.41806	1079.23047	-1325.48779	-430.51859	935.09399	-1297.86206	-409.65143	802.73145	-1324.74438	-473.27731	823.73090	-1334.39233	-468.36414	733.49231	-895.90363	-288.37198	1387.38867	-799.51349	-332.31769	1196.50562	-782.62274	-318.92825	1078.57959	-771.07733	-255.70839	980.72345	-816.32635	-136.77802	897.77679	-776.25165	-181.15164	867.31696	-781.11945	-110.90983	823.01526	-1143.01013	-206.37492	944.16876	-927.42438	-220.63797	936.35571	-1126.10913	-367.36203	967.83081	-958.61908	-368.01294	962.81403	-1212.35205	-200.13980	641.33881	-1181.03845	-143.70378	491.02216	-1172.80762	-133.09891	232.27541	-1126.36499	-114.54098	62.53987	-1077.05896	-152.55078	48.64941	-1126.25574	29.58483	43.69351	-880.17169	-302.86575	595.98767	-896.85657	-313.90176	468.60840	-918.36591	-517.92523	299.28857	-967.81708	-663.29407	189.97743	-1011.60931	-697.68958	214.83441	-993.46588	-624.00970	41.82854	-1052.76782	-313.24731	1676.25549												 
46	0.450	-1109.01855	-196.39366	1640.15967	-978.28302	-203.37096	1625.60107	-1118.31421	-329.21667	1587.22180	-989.58582	-334.91794	1577.70532	-1060.40466	-334.65649	1427.19202	-1039.26233	-373.67169	1098.90210	-1056.67883	-225.71387	1348.03552	-1055.76025	-187.45085	1172.86792	-974.22363	-410.50742	1259.26709	-1219.41394	-281.54349	1377.26489	-1288.87524	-336.67786	1184.76135	-1297.73633	-378.86096	1080.31555	-1327.35901	-410.27283	935.75891	-1298.34998	-388.61258	803.66949	-1326.93481	-451.92401	824.01172	-1335.47778	-446.33490	733.34760	-897.10120	-274.55414	1389.20740	-801.29309	-319.81927	1198.59863	-785.09961	-306.62067	1080.24780	-772.62085	-245.45824	980.80573	-816.71234	-128.49745	894.21259	-776.70093	-173.94086	865.37775	-780.93805	-104.89063	819.02643	-1144.26917	-191.54846	946.82642	-928.72876	-205.37180	937.48450	-1125.30127	-352.72278	969.63824	-957.98761	-352.53659	963.20532	-1213.72913	-186.09734	643.64520	-1181.88416	-132.14925	491.71881	-1173.35657	-126.49047	232.73869	-1126.27808	-112.07188	62.49992	-1077.04028	-151.25005	49.74229	-1125.92407	31.21387	41.08910	-879.55145	-280.48315	595.23126	-895.21533	-287.10544	467.79904	-917.00928	-491.87137	304.53317	-966.88928	-639.74280	199.82309	-1010.96893	-670.71143	227.67165	-992.83075	-615.80072	45.53047	-1054.62402	-299.12207	1677.44617												 
